<?xml version="1.0" encoding="UTF-8"?>
<svg width="300px" height="300px" viewBox="0 0 300 300" version="1.1" xmlns="http://www.w3.org/2000/svg" xmlns:xlink="http://www.w3.org/1999/xlink">
    <!-- Generator: Sketch 58 (84663) - https://sketch.com -->
    <title>Mark</title>
    <desc>Created with Sketch.</desc>
    <g id="Mark" stroke="none" stroke-width="1" fill="none" fill-rule="evenodd">
        <g transform="translate(34.000000, 55.000000)">
            <g id="Face" transform="translate(119.000000, 0.000000)">
                <polygon id="Path-53" fill="#E9B697" points="3.64864865 50.44 3.64864865 14.2266667 9.72972973 14.2266667 9.72972973 7.76 17.027027 7.76 17.027027 0 69.3243243 0 69.3243243 7.76 76.6216216 7.76 76.6216216 14.2266667 82.7027027 14.2266667 82.7027027 36.2133333 90 36.2133333 90 49.1466667 82.7027027 49.1466667 82.7027027 51.7333333 75.4054054 51.7333333 75.4054054 43.9733333 71.7567568 43.9733333 71.7567568 51.7333333 64.4594595 51.7333333 64.4594595 58.2 55.9459459 58.2 55.9459459 50.44 17.027027 50.44 17.027027 56.9066667 8.51351351 58.2 8.51351351 50.44"></polygon>
                <polygon id="Path-54" fill="#1B0005" points="17.027027 28.4533333 23.1081081 28.4533333 23.1081081 42.68 17.027027 42.68"></polygon>
                <polygon id="Path-54" fill="#1B0005" points="49.8648649 28.4533333 55.9459459 28.4533333 55.9459459 42.68 49.8648649 42.68"></polygon>
                <path d="M0,50.44 L8.51351351,50.44 L8.51351351,56.9066667 L17.027027,56.9066667 L17.027027,64.6666667 C27.027027,64.6666667 34.7297297,64.6666667 40.1351351,64.6666667 C45.5405405,64.6666667 50.8108108,64.6666667 55.9459459,64.6666667 L55.9459459,58.2 L64.4594595,58.2 L64.4594595,51.7333333 L71.7567568,51.7333333 L71.7567568,43.9733333 L77.8378378,43.9733333 L77.8378378,51.7333333 L82.7027027,51.7333333 L82.7027027,78.8933333 L82.7027027,84.0666667 L75.4054054,84.0666667 L75.4054054,91.8266667 L69.3243243,91.8266667 L69.3243243,97 L10.9459459,97 L10.9459459,91.8266667 L3.64864865,91.8266667 L3.64864865,84.0666667 L0,84.0666667 L0,50.44 Z" id="Path-55" fill="#74423B"></path>
                <polygon id="Path-56" fill="#FFFFFF" points="23.1081081 56.9066667 49.8648649 56.9066667 49.8648649 71.1333333 30.4054054 71.1333333 30.4054054 64.6666667 23.1081081 64.6666667"></polygon>
                <polygon id="Path-57" fill="#9B504A" points="17.027027 64.6666667 17.027027 50.44 55.9459459 50.44 55.9459459 64.6666667 49.8648649 64.6666667 49.8648649 56.9066667 23.1081081 56.9066667 23.1081081 64.6666667"></polygon>
                <polygon id="Path-58" fill="#61323C" points="-8.75144551e-15 84.0666667 0 77.6 3.64864865 77.6 3.64864865 84.0666667 10.9459459 84.0666667 10.9459459 91.8266667 69.3243243 91.8266667 69.3243243 84.0666667 75.4054054 84.0666667 75.4054054 77.6 82.7027027 77.6 82.7027027 84.0666667 75.4054054 84.0666667 75.4054054 91.8266667 69.3243243 91.8266667 69.3243243 97 10.9459459 97 10.9459459 91.8266667 3.64864865 91.8266667 3.64864865 84.0666667"></polygon>
                <polygon id="Path-59" fill="#FCD4CA" points="69.3243243 7.76 69.3243243 14.2266667 76.6216216 14.2266667 76.6216216 20.6933333 82.7027027 20.6933333 82.7027027 14.2266667 76.6216216 14.2266667 76.6216216 7.76"></polygon>
                <polygon id="Path-60" fill="#F4D8C0" points="30.4054054 36.2133333 42.5675676 36.2133333 42.5675676 42.68 30.4054054 42.68"></polygon>
                <polygon id="Path-62" fill="#D49E7A" points="55.9459459 58.2 55.9459459 51.7333333 64.4594595 51.7333333 64.4594595 43.9733333 71.7567568 43.9733333 71.7567568 36.2133333 77.8378378 36.2133333 77.8378378 43.9733333 82.7027027 43.9733333 82.7027027 51.7333333 77.8378378 51.7333333 77.8378378 43.9733333 71.7567568 43.9733333 71.7567568 51.7333333 64.4594595 51.7333333 64.4594595 58.2"></polygon>
                <polygon id="Path-61" fill="#D49E7A" points="8.51351351 50.44 17.027027 50.44 17.027027 56.9066667 8.51351351 56.9066667"></polygon>
            </g>
            <g id="Shirt" transform="translate(117.000000, 77.000000)">
                <polygon id="Path-63" fill="#205D3B" points="0 14.0555556 0 34.5 13.3023256 34.5 13.3023256 69 71.3488372 69 71.3488372 62.6111111 77.3953488 62.6111111 77 42 71 42 71.3488372 34.5 78.6046512 34.5 78.6046512 28.1111111 97.9534884 28.1111111 104 28.1111111 104 14.0555556 97.9534884 14.0555556 97.9534884 7.66666667 91.9069767 7.66666667 91.9069767 0 84.6511628 0 84.6511628 6.38888889 77.3953488 6.38888889 77.3953488 14.0555556 71.3488372 14.0555556 71 20 13.3023256 19.1666667 13.3023256 14.0555556"></polygon>
                <polygon id="Path-64" fill="#418844" points="13.3023256 56.2222222 58.0465116 56.2222222 58.0465116 63.8888889 13.3023256 63.8888889"></polygon>
                <polygon id="Path-65" fill="#418844" points="13.3023256 43.4444444 62.8837209 43.4444444 62.8837209 49.8333333 13.3023256 49.8333333"></polygon>
                <path d="M13.3023256,28.1111111 C13.3023256,28.1111111 27.8139535,28.1111111 56.8372093,28.1111111 L56.8372093,34.5 L13.3023256,34.5 C13.3023256,30.2407407 13.3023256,28.1111111 13.3023256,28.1111111 Z" id="Path-66" fill="#418844"></path>
                <polygon id="Path-67" fill="#418844" points="6.04651163 14.0555556 13.3023256 14.0555556 13.3023256 24.2777778 8.8817842e-16 24.2777778 7.16849061e-14 19.1666667 6.04651163 19.1666667"></polygon>
                <polygon id="Path-68" fill="#418844" points="71.3488372 26.8333333 65.3023256 26.8333333 65.3023256 33.2222222 65.3023256 42.1666667 71.3488372 42.1666667 71.3488372 34.5 78.6046512 34.5 78.6046512 28.1111111 97.9534884 28.1111111 97.9534884 20.4444444 90.6976744 20.4444444 90.6976744 14.0555556 78.6046512 14.0555556 78.6046512 20.4444444 71.3488372 20.4444444"></polygon>
                <polygon id="Path-69" fill="#6FBC52" points="84.6511628 0 84.6511628 7.66666667 90.6976744 7.66666667 90.6976744 15.3333333 97.9534884 15.3333333 97.9534884 7.66666667 91.9069767 7.66666667 91.9069767 0"></polygon>
            </g>
            <g id="Sword" transform="translate(0.000000, 42.000000)">
                <polygon id="Path-70" fill="#536C8A" points="58.9902913 111.980198 72.2330097 111.980198 72.2330097 104.257426 78.2524272 104.257426 78.2524272 97.8217822 85.4757282 97.8217822 85.4757282 91.3861386 91.4951456 91.3861386 91.4951456 83.6633663 98.7184466 83.6633663 98.7184466 77.2277228 104.737864 77.2277228 104.737864 63.0693069 91.4951456 63.0693069 91.4951456 69.5049505 84.2718447 69.5049505 84.2718447 77.2277228 78.2524272 77.2277228 78.2524272 83.6633663 72.2330097 83.6633663 72.2330097 90.0990099 65.0097087 90.0990099 65.0097087 97.8217822 58.9902913 97.8217822"></polygon>
                <polygon id="Path-71" fill="#F9EB64" points="85.4757282 91.3861386 85.4757282 83.6633663 91.4951456 83.6633663 91.4951456 77.2277228 98.7184466 77.2277228 98.7184466 69.5049505 91.4951456 69.5049505 91.4951456 77.2277228 85.4757282 77.2277228 85.4757282 83.6633663 78.2524272 83.6633663 78.2524272 91.3861386"></polygon>
                <polygon id="Path-72" fill="#8B9DB5" points="65.0097087 90.0990099 58.9902913 90.0990099 58.9902913 83.6633663 52.9708738 83.6633663 52.9708738 77.2277228 45.7475728 77.2277228 45.7475728 69.5049505 39.7281553 69.5049505 39.7281553 63.0693069 32.5048544 63.0693069 32.5048544 56.6336634 26.4854369 56.6336634 26.4854369 48.9108911 19.2621359 48.9108911 19.2621359 42.4752475 13.2427184 42.4752475 13.2427184 34.7524752 6.01941748 34.7524752 6.01941748 28.3168317 0 28.3168317 0 0 26.4854369 0 26.4854369 6.43564356 32.5048544 6.43564356 32.5048544 14.1584158 39.7281553 14.1584158 39.7281553 20.5940594 45.7475728 20.5940594 45.7475728 27.029703 52.9708738 27.029703 52.9708738 34.7524752 58.9902913 34.7524752 58.9902913 41.1881188 66.2135922 41.1881188 66.2135922 48.9108911 72.2330097 48.9108911 72.2330097 55.3465347 79.4563107 55.3465347 79.4563107 61.7821782 84.2718447 61.7821782 84.2718447 77.2277228 78.2524272 77.2277228 78.2524272 83.6633663 72.2330097 83.6633663 72.2330097 90.0990099"></polygon>
                <polygon id="Path-73" fill="#C3CADA" points="0 6.43564356 0 12.8712871 12.038835 12.8712871 19.2621359 12.8712871 19.2621359 19.3069307 26.4854369 19.3069307 26.4854369 27.029703 32.5048544 27.029703 32.5048544 34.7524752 39.7281553 34.7524752 39.7281553 39.9009901 46.9514563 39.9009901 46.9514563 47.6237624 51.7669903 47.6237624 51.7669903 55.3465347 58.9902913 55.3465347 58.9902913 61.7821782 66.2135922 61.7821782 66.2135922 68.2178218 72.2330097 68.2178218 72.2330097 77.2277228 84.2718447 77.2277228 84.2718447 69.5049505 78.2524272 69.5049505 78.2524272 61.7821782 71.0291262 61.7821782 71.0291262 55.3465347 65.0097087 55.3465347 65.0097087 47.6237624 58.9902913 47.6237624 58.9902913 41.1881188 51.7669903 41.1881188 51.7669903 34.7524752 45.7475728 34.7524752 45.7475728 27.029703 38.5242718 27.029703 38.5242718 20.5940594 32.5048544 20.5940594 32.5048544 12.8712871 25.2815534 12.8712871 25.2815534 6.43564356"></polygon>
                <polygon id="Path" fill="#FBB146" points="78.2524272 91.3861386 78.2524272 97.8217822 72.2330097 97.8217822 72.2330097 104.257426 65.0097087 104.257426 65.0097087 97.8217822 72.2330097 97.8217822 72.2330097 91.3861386"></polygon>
                <polygon id="Path-79" fill="#536C8A" points="110.757282 104.257426 117.980583 104.257426 117.980583 118.415842 124 118.415842 124 123.564356 117.980583 123.564356 117.980583 130 111.961165 130 111.961165 124.851485 104.737864 124.851485 104.737864 118.415842 110.757282 118.415842 110.757282 111.980198 104.737864 111.980198 104.737864 118.415842 85.4757282 118.415842 85.4757282 111.980198 98 112 98 104 104.737864 104.257426"></polygon>
                <polygon id="Path-81" fill="#74423B" points="104.737864 111.980198 110.757282 111.980198 110.757282 118.415842 104.737864 118.415842"></polygon>
            </g>
            <g id="Right-Arm" transform="translate(78.000000, 111.000000)">
                <polygon id="Path-74" fill="#E7BC9A" points="0 28.6666667 13.25 28.6666667 13.25 35.1818182 20.4772727 35.1818182 20.4772727 43 7.22727273 43 7.22727273 36.4848485 0 36.4848485"></polygon>
                <path d="M13.25,35.1818182 L13.25,28.6666667 L7.22727273,28.6666667 L7.22727273,21.2828283 L20.4772727,21.2828283 L20.4772727,14.3333333 L26.5,14.3333333 L32.5227273,14.3333333 L32.5227273,0 L53,0 L53,28.6666667 L45.7727273,28.6666667 L45.7727273,35.1818182 L26.5,35.1818182 L13.25,35.1818182 Z" id="Combined-Shape" fill="#BE8A5B"></path>
                <polygon id="Path-76" fill="#E7BC9A" points="26.5 14.3333333 32.5227273 14.3333333 45.7727273 14.3333333 45.7727273 7.81818182 26.5 7.81818182"></polygon>
                <rect id="Rectangle" fill="#E7BC9A" x="20.4772727" y="7.81818182" width="6.02272727" height="6.51515152"></rect>
                <polygon id="Path-75" fill="#E7BC9A" points="13.25 14.3333333 13.25 28.6666667 20.4772727 28.6666667 20.4772727 14.3333333"></polygon>
                <polygon id="Path-80" fill="#74423B" points="20.4772727 7.81818182 32.5227273 7.81818182 32.5227273 35.1818182 26.5 35.1818182 26.5 14.3333333 20.4772727 14.3333333"></polygon>
            </g>
            <g id="Shoes" transform="translate(98.000000, 172.000000)" fill="#74423B">
                <polygon id="Path-86" points="13.0810811 0.75 19.027027 0.75 19.027027 7.56818182 38.0540541 7.56818182 38.0540541 0.75 44 0.75 44 15.75 0 15.75 0 10.2954545 5.94594595 10.2954545 5.94594595 2.11363636 13.0810811 2.11363636"></polygon>
                <polygon id="Path-87" points="92 1 92 17 136 17 136 10.3333333 130.054054 10.3333333 130.054054 2.33333333 122.918919 2.33333333 122.918919 1 109.837838 1 109.837838 6.33333333 97.9459459 6.33333333 97.9459459 1"></polygon>
            </g>
            <g id="Pants" transform="translate(111.000000, 146.000000)">
                <polygon id="Path-85" fill="#083167" points="77.3626374 0 77 13 104 13 103.956044 20.9230769 110 20.9230769 110 27.4615385 77.3626374 27.4615385 71.3186813 27.4615385 71.3186813 20.9230769 37.4725275 20.9230769 37.4725275 27.4615385 25.3846154 27.4615385 25.3846154 34 6 34 6 28 0 28 0 19.6153846 6.04395604 19.6153846 6.04395604 13.0769231 12.0879121 13.0769231 12.0879121 6.53846154 19.3406593 6.53846154 19.3406593 0"></polygon>
                <polygon id="Path-82" fill="#134D7D" points="6.04395604 27.4615385 6.04395604 20.9230769 12.0879121 20.9230769 12.0879121 14.3846154 18.1318681 14.3846154 18.1318681 6.53846154 31.4285714 6.53846154 31.4285714 13.0769231 25.3846154 13.0769231 25.3846154 19.6153846 19.3406593 19.6153846 19.3406593 27.4615385"></polygon>
                <polygon id="Path-83" fill="#134D7D" points="71.3186813 14.3846154 76.1538462 14.3846154 76.1538462 19.6153846 71.3186813 19.6153846"></polygon>
                <polygon id="Path-84" fill="#134D7D" points="84.6153846 27.4615385 97.6153846 27.4615385 97.6153846 32.6923077 84.6153846 32.6923077"></polygon>
            </g>
            <g id="Left-Arm" transform="translate(188.000000, 105.000000)">
                <g id="Group" transform="translate(20.777778, 67.620690)"></g>
                <polygon id="Path-89" fill="#DBB7A7" points="19.5555556 0 33 0 33 6.37931034 19.5555556 6.37931034 20.2222222 21.6896552 33 21.6896552 33 42.1034483 20.2222222 42.1034483 20.2222222 28.0689655 12.2222222 28.0689655 12.2222222 6.37931034 19.5555556 6.37931034"></polygon>
                <polygon id="Path-90" fill="#F6D7C3" points="19.5555556 6.37931034 33 6.37931034 33 21.6896552 19.5555556 21.6896552"></polygon>
                <polygon id="Path-91" fill="#E4B599" points="6.4021164 34.4482759 14.6666667 34.4482759 14.6666667 42.1034483 20.7777778 42.1034483 20.7777778 48.4827586 33 48.4827586 33 54.862069 0 54.862069 0 40.8275862 6.4021164 40.8275862"></polygon>
                <polygon id="Path-92" fill="#F6D7C3" points="14.6666667 34.4482759 20.7777778 34.4482759 20.7777778 42.1034483 14.6666667 42.1034483"></polygon>
                <polygon id="Path-93" fill="#F6D7C3" points="20.7777778 42.1034483 33 42.1034483 33 48.4827586 20.7777778 48.4827586"></polygon>
                <polygon id="Path-88" fill="#C1836A" points="19.5555556 0 19.5555556 6.37931034 13.4444444 6.37931034 13.4444444 26.7931034 20.7777778 26.7931034 20.7777778 34.4482759 7.33333333 34.4482759 7.33333333 40.8275862 0 40.8275862 0 34.4482759 6.11111111 34.4482759 6 14 0 14 0 6.37931034 7.33333333 6.37931034 7.33333333 0"></polygon>
            </g>
        </g>
    </g>
</svg>